<?xml version="1.0" standalone="no"?>
<!DOCTYPE svg PUBLIC "-//W3C//DTD SVG 20010904//EN"
 "http://www.w3.org/TR/2001/REC-SVG-20010904/DTD/svg10.dtd">
<svg version="1.0" xmlns="http://www.w3.org/2000/svg"
 width="150.000000pt" height="150.000000pt" viewBox="0 0 150.000000 150.000000"
 preserveAspectRatio="xMidYMid meet">

<g transform="translate(0.000000,150.000000) scale(0.100000,-0.100000)"
fill="#bb262c" stroke="none">
<path d="M330 1220 l0 -100 419 0 420 0 3 90 c2 50 2 95 0 100 -2 6 -159 10
-423 10 l-419 0 0 -100z"/>
<path d="M337 843 c-4 -3 -7 -48 -7 -100 l0 -93 420 0 420 0 1 65 c1 36 2 72
2 80 0 60 40 55 -416 55 -228 0 -417 -3 -420 -7z"/>
<path d="M330 280 l0 -100 420 0 420 0 0 100 0 100 -420 0 -420 0 0 -100z"/>
</g>
</svg>
