<svg xmlns="http://www.w3.org/2000/svg" width="56" height="42" viewBox="0 0 56 42" fill="none"><path d="M49.5 25.2V23.7H48H40C36.4841 23.7 33.5 20.6745 33.5 16.8V8.4C33.5 4.5255 36.4841 1.5 40 1.5H48C51.5159 1.5 54.5 4.5255 54.5 8.4V12.6V16.8V26.25C54.5 34.1933 48.3909 40.5 41 40.5H40C38.6841 40.5 37.5 39.3645 37.5 37.8C37.5 36.2355 38.6841 35.1 40 35.1H41C45.7591 35.1 49.5 31.0642 49.5 26.25V25.2ZM17.5 25.2V23.7H16H8C4.48405 23.7 1.5 20.6745 1.5 16.8V8.4C1.5 4.5255 4.48405 1.5 8 1.5H16C19.5159 1.5 22.5 4.5255 22.5 8.4V12.6V16.8V26.25C22.5 34.1933 16.3909 40.5 9 40.5H8C6.68405 40.5 5.5 39.3645 5.5 37.8C5.5 36.2355 6.68405 35.1 8 35.1H9C13.7591 35.1 17.5 31.0642 17.5 26.25V25.2Z" stroke="#31526c" stroke-width="3"></path></svg>